<svg xmlns="http://www.w3.org/2000/svg" viewBox="0 0 1500 920" role="img" aria-label="claude-prompt architecture diagram"><style>
    .title      { font: 700 13px "Iosevka", ui-monospace, SFMono-Regular, Menlo, monospace;
                  fill: #f6c89a; letter-spacing: 0.09em; text-transform: uppercase; }
    .h1         { font: 700 20px "Iosevka", ui-monospace, Menlo, monospace; fill: #fbeee4; letter-spacing: 0.14em; }
    .node-label { font: 600 13.5px ui-monospace, SFMono-Regular, Menlo, monospace; fill: #fdf6ef; }
    .node-sub   { font: 500 10.5px -apple-system, system-ui, sans-serif; fill: #c4a78f; }
    .edge-label { font: 600 10px -apple-system, system-ui, sans-serif; fill: #fdf6ef; }
    .legend     { font: 500 12px -apple-system, system-ui, sans-serif; fill: #c4a78f; }
    .legend-h   { font: 700 12px ui-monospace, Menlo, monospace; fill: #f6c89a; letter-spacing: 0.06em; text-transform: uppercase; }
    .footer     { font: 500 10px ui-monospace, Menlo, monospace; fill: #8c7257; }

    @media (prefers-color-scheme: light) {
      .title      { fill: #b45309; }
      .h1         { fill: #7c2d12; }
      .node-label { fill: #431407; }
      .node-sub   { fill: #9a3412; }
      .edge-label { fill: #431407; }
      .legend     { fill: #9a3412; }
      .legend-h   { fill: #b45309; }
      .footer     { fill: #a16207; }
    }
</style>
<defs><radialGradient id="bg-canvas" cx="50%" cy="0%" r="120%"><stop offset="0%" stop-color="#241310"/><stop offset="100%" stop-color="#0c0705"/></radialGradient><linearGradient id="bg-install" x1="0%" y1="0%" x2="0%" y2="100%"><stop offset="0%" stop-color="#2a2018" stop-opacity="0.9"/><stop offset="100%" stop-color="#140e09" stop-opacity="0.55"/></linearGradient><linearGradient id="bg-run" x1="0%" y1="0%" x2="0%" y2="100%"><stop offset="0%" stop-color="#3a2417" stop-opacity="0.9"/><stop offset="100%" stop-color="#1b0f08" stop-opacity="0.55"/></linearGradient><linearGradient id="bg-tech" x1="0%" y1="0%" x2="0%" y2="100%"><stop offset="0%" stop-color="#2d2620" stop-opacity="0.9"/><stop offset="100%" stop-color="#161009" stop-opacity="0.55"/></linearGradient><linearGradient id="bg-out" x1="0%" y1="0%" x2="0%" y2="100%"><stop offset="0%" stop-color="#142a20" stop-opacity="0.9"/><stop offset="100%" stop-color="#08160f" stop-opacity="0.55"/></linearGradient><marker id="arrow-d97757" viewBox="0 0 10 10" refX="9" refY="5" markerWidth="7" markerHeight="7" orient="auto-start-reverse"><path d="M0,0 L10,5 L0,10 z" fill="#d97757"/></marker><marker id="arrow-fbbf24" viewBox="0 0 10 10" refX="9" refY="5" markerWidth="7" markerHeight="7" orient="auto-start-reverse"><path d="M0,0 L10,5 L0,10 z" fill="#fbbf24"/></marker><marker id="arrow-f4b860" viewBox="0 0 10 10" refX="9" refY="5" markerWidth="7" markerHeight="7" orient="auto-start-reverse"><path d="M0,0 L10,5 L0,10 z" fill="#f4b860"/></marker><marker id="arrow-22d3ee" viewBox="0 0 10 10" refX="9" refY="5" markerWidth="7" markerHeight="7" orient="auto-start-reverse"><path d="M0,0 L10,5 L0,10 z" fill="#22d3ee"/></marker><marker id="arrow-2dd4bf" viewBox="0 0 10 10" refX="9" refY="5" markerWidth="7" markerHeight="7" orient="auto-start-reverse"><path d="M0,0 L10,5 L0,10 z" fill="#2dd4bf"/></marker><marker id="arrow-a78bfa" viewBox="0 0 10 10" refX="9" refY="5" markerWidth="7" markerHeight="7" orient="auto-start-reverse"><path d="M0,0 L10,5 L0,10 z" fill="#a78bfa"/></marker><marker id="arrow-f472b6" viewBox="0 0 10 10" refX="9" refY="5" markerWidth="7" markerHeight="7" orient="auto-start-reverse"><path d="M0,0 L10,5 L0,10 z" fill="#f472b6"/></marker><marker id="arrow-34d399" viewBox="0 0 10 10" refX="9" refY="5" markerWidth="7" markerHeight="7" orient="auto-start-reverse"><path d="M0,0 L10,5 L0,10 z" fill="#34d399"/></marker><marker id="arrow-94a3b8" viewBox="0 0 10 10" refX="9" refY="5" markerWidth="7" markerHeight="7" orient="auto-start-reverse"><path d="M0,0 L10,5 L0,10 z" fill="#94a3b8"/></marker><marker id="arrow-e7d8c9" viewBox="0 0 10 10" refX="9" refY="5" markerWidth="7" markerHeight="7" orient="auto-start-reverse"><path d="M0,0 L10,5 L0,10 z" fill="#e7d8c9"/></marker></defs>
<rect width="1500" height="920" fill="url(#bg-canvas)"/>
<text x="40" y="50" class="h1">CLAUDE-PROMPT &#183; LIVE ARCHITECTURE</text>
<text x="40" y="76" class="legend">One command (commands/p.md) &#8594; read &amp; gate the request &#8226; rewrite with four techniques &#8226; show the optimized prompt &#8226; then carry it out &#8226; dots are live</text>
<g class="subsystem"><rect x="40" y="110" width="300" height="560" rx="16" fill="url(#bg-install)" stroke="#b08968" stroke-width="1.5"/><text x="58" y="138" class="title">Install surface · the plugin</text></g>
<g class="subsystem"><rect x="380" y="110" width="420" height="700" rx="16" fill="url(#bg-run)" stroke="#d97757" stroke-width="1.5"/><text x="398" y="138" class="title">PROMPT OPTIMIZER mode · /p</text></g>
<g class="subsystem"><rect x="840" y="110" width="620" height="300" rx="16" fill="url(#bg-tech)" stroke="#fbbf24" stroke-width="1.5"/><text x="858" y="138" class="title">Step 1 · optimize with 4 techniques</text></g>
<g class="subsystem"><rect x="840" y="450" width="620" height="220" rx="16" fill="url(#bg-out)" stroke="#34d399" stroke-width="1.5"/><text x="858" y="478" class="title">Output</text></g>
<g><rect x="85.0" y="170" width="210" height="74" rx="11" fill="rgba(28, 16, 10, 0.62)" stroke="#94a3b8" stroke-width="1" stroke-opacity="0.5"/><g transform="translate(93.0 183) scale(1.4167)" fill="none" stroke="#94a3b8" stroke-width="2" stroke-linecap="round" stroke-linejoin="round"><line x1="16.5" y1="9.4" x2="7.5" y2="4.21"/><path d="M21 16V8a2 2 0 0 0-1-1.73l-7-4a2 2 0 0 0-2 0l-7 4A2 2 0 0 0 3 8v8a2 2 0 0 0 1 1.73l7 4a2 2 0 0 0 2 0l7-4A2 2 0 0 0 21 16z"/><polyline points="3.27 6.96 12 12.01 20.73 6.96"/><line x1="12" y1="22.08" x2="12" y2="12"/></g><text x="139.0" y="197" class="node-label">.claude-plugin/</text><text x="139.0" y="216" class="node-sub">plugin.json · marketplace.json</text><g transform="translate(285.0, 180)"><circle r="4" fill="#94a3b8"><animate attributeName="r" values="3;7;3" dur="2.4s" repeatCount="indefinite"/><animate attributeName="opacity" values="1;0.35;1" dur="2.4s" repeatCount="indefinite"/></circle><circle r="3" fill="#94a3b8"/></g></g>
<g><rect x="85.0" y="310" width="210" height="74" rx="11" fill="rgba(28, 16, 10, 0.62)" stroke="#d97757" stroke-width="1" stroke-opacity="0.5"/><g transform="translate(93.0 323) scale(1.4167)" fill="none" stroke="#d97757" stroke-width="2" stroke-linecap="round" stroke-linejoin="round"><path d="M18 3a3 3 0 0 0-3 3v12a3 3 0 1 0 3-3H6a3 3 0 1 0 3 3V6a3 3 0 1 0-3 3h12a3 3 0 0 0 0-6z"/></g><text x="139.0" y="337" class="node-label">commands/p.md</text><text x="139.0" y="356" class="node-sub">the /p definition</text><g transform="translate(285.0, 320)"><circle r="4" fill="#d97757"><animate attributeName="r" values="3;7;3" dur="2.4s" repeatCount="indefinite"/><animate attributeName="opacity" values="1;0.35;1" dur="2.4s" repeatCount="indefinite"/></circle><circle r="3" fill="#d97757"/></g></g>
<g><rect x="85.0" y="450" width="210" height="74" rx="11" fill="rgba(28, 16, 10, 0.62)" stroke="#fbbf24" stroke-width="1" stroke-opacity="0.5"/><g transform="translate(93.0 463) scale(1.4167)" fill="none" stroke="#fbbf24" stroke-width="2" stroke-linecap="round" stroke-linejoin="round"><polygon points="13 2 3 14 12 14 11 22 21 10 12 10 13 2"/></g><text x="139.0" y="477" class="node-label">/plugin install</text><text x="139.0" y="496" class="node-sub">claude-prompt</text><g transform="translate(285.0, 460)"><circle r="4" fill="#fbbf24"><animate attributeName="r" values="3;7;3" dur="2.4s" repeatCount="indefinite"/><animate attributeName="opacity" values="1;0.35;1" dur="2.4s" repeatCount="indefinite"/></circle><circle r="3" fill="#fbbf24"/></g></g>
<g><rect x="470.0" y="155" width="240" height="74" rx="11" fill="rgba(28, 16, 10, 0.62)" stroke="#e7d8c9" stroke-width="1" stroke-opacity="0.5"/><g transform="translate(478.0 168) scale(1.4167)" fill="none" stroke="#e7d8c9" stroke-width="2" stroke-linecap="round" stroke-linejoin="round"><path d="M20 21v-2a4 4 0 0 0-4-4H8a4 4 0 0 0-4 4v2"/><circle cx="12" cy="7" r="4"/></g><text x="524.0" y="182" class="node-label">your request</text><text x="524.0" y="201" class="node-sub">/p [--dry] &lt;request&gt;</text><g transform="translate(700.0, 165)"><circle r="4" fill="#e7d8c9"><animate attributeName="r" values="3;7;3" dur="2.4s" repeatCount="indefinite"/><animate attributeName="opacity" values="1;0.35;1" dur="2.4s" repeatCount="indefinite"/></circle><circle r="3" fill="#e7d8c9"/></g></g>
<g><rect x="470.0" y="285" width="240" height="74" rx="11" fill="rgba(28, 16, 10, 0.62)" stroke="#f472b6" stroke-width="1" stroke-opacity="0.5"/><g transform="translate(478.0 298) scale(1.4167)" fill="none" stroke="#f472b6" stroke-width="2" stroke-linecap="round" stroke-linejoin="round"><polygon points="22 3 2 3 10 12.46 10 19 14 21 14 12.46 22 3"/></g><text x="524.0" y="312" class="node-label">Step 0 · Read</text><text x="524.0" y="331" class="node-sub">type · clarity · stakes</text><g transform="translate(700.0, 295)"><circle r="4" fill="#f472b6"><animate attributeName="r" values="3;7;3" dur="2.4s" repeatCount="indefinite"/><animate attributeName="opacity" values="1;0.35;1" dur="2.4s" repeatCount="indefinite"/></circle><circle r="3" fill="#f472b6"/></g></g>
<g><rect x="470.0" y="415" width="240" height="74" rx="11" fill="rgba(28, 16, 10, 0.62)" stroke="#fbbf24" stroke-width="1" stroke-opacity="0.5"/><g transform="translate(478.0 428) scale(1.4167)" fill="none" stroke="#fbbf24" stroke-width="2" stroke-linecap="round" stroke-linejoin="round"><path d="M11 4H4a2 2 0 0 0-2 2v14a2 2 0 0 0 2 2h14a2 2 0 0 0 2-2v-7"/><path d="M18.5 2.5a2.121 2.121 0 0 1 3 3L12 15l-4 1 1-4 9.5-9.5z"/></g><text x="524.0" y="442" class="node-label">Step 1 · Optimize</text><text x="524.0" y="461" class="node-sub">rewrite for reasoning</text><g transform="translate(700.0, 425)"><circle r="4" fill="#fbbf24"><animate attributeName="r" values="3;7;3" dur="2.4s" repeatCount="indefinite"/><animate attributeName="opacity" values="1;0.35;1" dur="2.4s" repeatCount="indefinite"/></circle><circle r="3" fill="#fbbf24"/></g></g>
<g><rect x="470.0" y="545" width="240" height="74" rx="11" fill="rgba(28, 16, 10, 0.62)" stroke="#f4b860" stroke-width="1" stroke-opacity="0.5"/><g transform="translate(478.0 558) scale(1.4167)" fill="none" stroke="#f4b860" stroke-width="2" stroke-linecap="round" stroke-linejoin="round"><path d="M1 12s4-8 11-8 11 8 11 8-4 8-11 8-11-8-11-8z"/><circle cx="12" cy="12" r="3"/></g><text x="524.0" y="572" class="node-label">Step 2 · Show</text><text x="524.0" y="591" class="node-sub">Optimized prompt:</text><g transform="translate(700.0, 555)"><circle r="4" fill="#f4b860"><animate attributeName="r" values="3;7;3" dur="2.4s" repeatCount="indefinite"/><animate attributeName="opacity" values="1;0.35;1" dur="2.4s" repeatCount="indefinite"/></circle><circle r="3" fill="#f4b860"/></g></g>
<g><rect x="470.0" y="675" width="240" height="74" rx="11" fill="rgba(28, 16, 10, 0.62)" stroke="#d97757" stroke-width="1" stroke-opacity="0.5"/><g transform="translate(478.0 688) scale(1.4167)" fill="none" stroke="#d97757" stroke-width="2" stroke-linecap="round" stroke-linejoin="round"><polygon points="5 3 19 12 5 21 5 3"/></g><text x="524.0" y="702" class="node-label">Step 3 · Execute</text><text x="524.0" y="721" class="node-sub">clear asks run one-shot</text><g transform="translate(700.0, 685)"><circle r="4" fill="#d97757"><animate attributeName="r" values="3;7;3" dur="2.4s" repeatCount="indefinite"/><animate attributeName="opacity" values="1;0.35;1" dur="2.4s" repeatCount="indefinite"/></circle><circle r="3" fill="#d97757"/></g></g>
<g><rect x="850.0" y="170" width="270" height="74" rx="11" fill="rgba(28, 16, 10, 0.62)" stroke="#22d3ee" stroke-width="1" stroke-opacity="0.5"/><g transform="translate(858.0 183) scale(1.4167)" fill="none" stroke="#22d3ee" stroke-width="2" stroke-linecap="round" stroke-linejoin="round"><polygon points="12 2 2 7 12 12 22 7 12 2"/><polyline points="2 17 12 22 22 17"/><polyline points="2 12 12 17 22 12"/></g><text x="904.0" y="197" class="node-label">structured context</text><text x="904.0" y="216" class="node-sub">frameworks · step-by-step</text><g transform="translate(1110.0, 180)"><circle r="4" fill="#22d3ee"><animate attributeName="r" values="3;7;3" dur="2.4s" repeatCount="indefinite"/><animate attributeName="opacity" values="1;0.35;1" dur="2.4s" repeatCount="indefinite"/></circle><circle r="3" fill="#22d3ee"/></g></g>
<g><rect x="850.0" y="290" width="270" height="74" rx="11" fill="rgba(28, 16, 10, 0.62)" stroke="#a78bfa" stroke-width="1" stroke-opacity="0.5"/><g transform="translate(858.0 303) scale(1.4167)" fill="none" stroke="#a78bfa" stroke-width="2" stroke-linecap="round" stroke-linejoin="round"><rect x="4" y="4" width="16" height="16" rx="2" ry="2"/><rect x="9" y="9" width="6" height="6"/><line x1="9" y1="1" x2="9" y2="4"/><line x1="15" y1="1" x2="15" y2="4"/><line x1="9" y1="20" x2="9" y2="23"/><line x1="15" y1="20" x2="15" y2="23"/><line x1="20" y1="9" x2="23" y2="9"/><line x1="20" y1="14" x2="23" y2="14"/><line x1="1" y1="9" x2="4" y2="9"/><line x1="1" y1="14" x2="4" y2="14"/></g><text x="904.0" y="317" class="node-label">meta-instructions</text><text x="904.0" y="336" class="node-sub">extended thinking + plan</text><g transform="translate(1110.0, 300)"><circle r="4" fill="#a78bfa"><animate attributeName="r" values="3;7;3" dur="2.4s" repeatCount="indefinite"/><animate attributeName="opacity" values="1;0.35;1" dur="2.4s" repeatCount="indefinite"/></circle><circle r="3" fill="#a78bfa"/></g></g>
<g><rect x="1165.0" y="170" width="270" height="74" rx="11" fill="rgba(28, 16, 10, 0.62)" stroke="#2dd4bf" stroke-width="1" stroke-opacity="0.5"/><g transform="translate(1173.0 183) scale(1.4167)" fill="none" stroke="#2dd4bf" stroke-width="2" stroke-linecap="round" stroke-linejoin="round"><circle cx="12" cy="12" r="10"/><circle cx="12" cy="12" r="6"/><circle cx="12" cy="12" r="2"/></g><text x="1219.0" y="197" class="node-label">specificity</text><text x="1219.0" y="216" class="node-sub">success criteria</text><g transform="translate(1425.0, 180)"><circle r="4" fill="#2dd4bf"><animate attributeName="r" values="3;7;3" dur="2.4s" repeatCount="indefinite"/><animate attributeName="opacity" values="1;0.35;1" dur="2.4s" repeatCount="indefinite"/></circle><circle r="3" fill="#2dd4bf"/></g></g>
<g><rect x="1165.0" y="290" width="270" height="74" rx="11" fill="rgba(28, 16, 10, 0.62)" stroke="#f472b6" stroke-width="1" stroke-opacity="0.5"/><g transform="translate(1173.0 303) scale(1.4167)" fill="none" stroke="#f472b6" stroke-width="2" stroke-linecap="round" stroke-linejoin="round"><path d="M3 21c3 0 7-1 7-8V5c0-1.25-.756-2.017-2-2H4c-1.25 0-2 .75-2 1.972V11c0 1.25.75 2 2 2 1 0 1 0 1 1v1c0 1-1 2-2 2s-1 .008-1 1.031V20c0 1 0 1 1 1z"/><path d="M15 21c3 0 7-1 7-8V5c0-1.25-.757-2.017-2-2h-4c-1.25 0-2 .75-2 1.972V11c0 1.25.75 2 2 2h.75c0 2.25.25 4-2.75 4v3c0 1 0 1 1 1z"/></g><text x="1219.0" y="317" class="node-label">skip-comments</text><text x="1219.0" y="336" class="node-sub">"quoted" text untouched</text><g transform="translate(1425.0, 300)"><circle r="4" fill="#f472b6"><animate attributeName="r" values="3;7;3" dur="2.4s" repeatCount="indefinite"/><animate attributeName="opacity" values="1;0.35;1" dur="2.4s" repeatCount="indefinite"/></circle><circle r="3" fill="#f472b6"/></g></g>
<g><rect x="850.0" y="530" width="270" height="74" rx="11" fill="rgba(28, 16, 10, 0.62)" stroke="#f4b860" stroke-width="1" stroke-opacity="0.5"/><g transform="translate(858.0 543) scale(1.4167)" fill="none" stroke="#f4b860" stroke-width="2" stroke-linecap="round" stroke-linejoin="round"><path d="M22 11.08V12a10 10 0 1 1-5.93-9.14"/><polyline points="22 4 12 14.01 9 11.01"/></g><text x="904.0" y="557" class="node-label">optimized prompt</text><text x="904.0" y="576" class="node-sub">shown to you</text><g transform="translate(1110.0, 540)"><circle r="4" fill="#f4b860"><animate attributeName="r" values="3;7;3" dur="2.4s" repeatCount="indefinite"/><animate attributeName="opacity" values="1;0.35;1" dur="2.4s" repeatCount="indefinite"/></circle><circle r="3" fill="#f4b860"/></g></g>
<g><rect x="1165.0" y="530" width="270" height="74" rx="11" fill="rgba(28, 16, 10, 0.62)" stroke="#34d399" stroke-width="1" stroke-opacity="0.5"/><g transform="translate(1173.0 543) scale(1.4167)" fill="none" stroke="#34d399" stroke-width="2" stroke-linecap="round" stroke-linejoin="round"><polygon points="13 2 3 14 12 14 11 22 21 10 12 10 13 2"/></g><text x="1219.0" y="557" class="node-label">the result</text><text x="1219.0" y="576" class="node-sub">work, done</text><g transform="translate(1425.0, 540)"><circle r="4" fill="#34d399"><animate attributeName="r" values="3;7;3" dur="2.4s" repeatCount="indefinite"/><animate attributeName="opacity" values="1;0.35;1" dur="2.4s" repeatCount="indefinite"/></circle><circle r="3" fill="#34d399"/></g></g>
<path d="M 190 244 L 190 310" fill="none" stroke="#94a3b8" stroke-width="2" stroke-opacity="0.5" stroke-linecap="round"  marker-end="url(#arrow-94a3b8)"/><path d="M 190 244 L 190 310" fill="none" stroke="#94a3b8" stroke-width="2" stroke-linecap="round" stroke-dasharray="2 14" stroke-opacity="0.95"><animate attributeName="stroke-dashoffset" values="0;-32" dur="2.4s" repeatCount="indefinite"/></path><g transform="translate(190 280)"><rect x="-27.0" y="-11" width="54.0" height="22" rx="6" fill="rgba(12, 7, 4, 0.88)" stroke="#94a3b8" stroke-opacity="0.45"/><text x="0" y="4" class="edge-label" text-anchor="middle">ships</text></g>
<path d="M 190 384 L 190 450" fill="none" stroke="#d97757" stroke-width="2" stroke-opacity="0.5" stroke-linecap="round"  marker-end="url(#arrow-d97757)"/><path d="M 190 384 L 190 450" fill="none" stroke="#d97757" stroke-width="2" stroke-linecap="round" stroke-dasharray="2 14" stroke-opacity="0.95"><animate attributeName="stroke-dashoffset" values="0;-32" dur="2.2s" repeatCount="indefinite"/></path><g transform="translate(190 420)"><rect x="-31.1" y="-11" width="62.2" height="22" rx="6" fill="rgba(12, 7, 4, 0.88)" stroke="#d97757" stroke-opacity="0.45"/><text x="0" y="4" class="edge-label" text-anchor="middle">install</text></g>
<path d="M 300 470 C 393.5 470, 393.5 190, 470 190" fill="none" stroke="#fbbf24" stroke-width="2" stroke-opacity="0.5" stroke-linecap="round"  marker-end="url(#arrow-fbbf24)"/><path d="M 300 470 C 393.5 470, 393.5 190, 470 190" fill="none" stroke="#fbbf24" stroke-width="2" stroke-linecap="round" stroke-dasharray="2 14" stroke-opacity="0.95"><animate attributeName="stroke-dashoffset" values="0;-32" dur="2.8s" repeatCount="indefinite"/></path><g transform="translate(388 300)"><rect x="-41.0" y="-11" width="82.0" height="22" rx="6" fill="rgba(12, 7, 4, 0.88)" stroke="#fbbf24" stroke-opacity="0.45"/><text x="0" y="4" class="edge-label" text-anchor="middle">enables /p</text></g>
<path d="M 590 229 L 590 285" fill="none" stroke="#e7d8c9" stroke-width="2" stroke-opacity="0.5" stroke-linecap="round"  marker-end="url(#arrow-e7d8c9)"/><path d="M 590 229 L 590 285" fill="none" stroke="#e7d8c9" stroke-width="2" stroke-linecap="round" stroke-dasharray="2 14" stroke-opacity="0.95"><animate attributeName="stroke-dashoffset" values="0;-32" dur="2.0s" repeatCount="indefinite"/></path><g transform="translate(590 257)"><rect x="-27.0" y="-11" width="54.0" height="22" rx="6" fill="rgba(12, 7, 4, 0.88)" stroke="#e7d8c9" stroke-opacity="0.45"/><text x="0" y="4" class="edge-label" text-anchor="middle">read</text></g>
<path d="M 590 359 L 590 415" fill="none" stroke="#f472b6" stroke-width="2" stroke-opacity="0.5" stroke-linecap="round"  marker-end="url(#arrow-f472b6)"/><path d="M 590 359 L 590 415" fill="none" stroke="#f472b6" stroke-width="2" stroke-linecap="round" stroke-dasharray="2 14" stroke-opacity="0.95"><animate attributeName="stroke-dashoffset" values="0;-32" dur="2.0s" repeatCount="indefinite"/></path>
<path d="M 590 489 L 590 545" fill="none" stroke="#fbbf24" stroke-width="2" stroke-opacity="0.5" stroke-linecap="round"  marker-end="url(#arrow-fbbf24)"/><path d="M 590 489 L 590 545" fill="none" stroke="#fbbf24" stroke-width="2" stroke-linecap="round" stroke-dasharray="2 14" stroke-opacity="0.95"><animate attributeName="stroke-dashoffset" values="0;-32" dur="2.0s" repeatCount="indefinite"/></path><g transform="translate(590 517)"><rect x="-31.1" y="-11" width="62.2" height="22" rx="6" fill="rgba(12, 7, 4, 0.88)" stroke="#fbbf24" stroke-opacity="0.45"/><text x="0" y="4" class="edge-label" text-anchor="middle">rewrite</text></g>
<path d="M 590 619 L 590 675" fill="none" stroke="#f4b860" stroke-width="2" stroke-opacity="0.5" stroke-linecap="round"  marker-end="url(#arrow-f4b860)"/><path d="M 590 619 L 590 675" fill="none" stroke="#f4b860" stroke-width="2" stroke-linecap="round" stroke-dasharray="2 14" stroke-opacity="0.95"><animate attributeName="stroke-dashoffset" values="0;-32" dur="2.0s" repeatCount="indefinite"/></path><g transform="translate(590 647)"><rect x="-34.4" y="-11" width="68.8" height="22" rx="6" fill="rgba(12, 7, 4, 0.88)" stroke="#f4b860" stroke-opacity="0.45"/><text x="0" y="4" class="edge-label" text-anchor="middle">then run</text></g>
<path d="M 470 315 C 432 280, 432 220, 470 185" fill="none" stroke="#f472b6" stroke-width="2" stroke-opacity="0.5" stroke-linecap="round"  marker-end="url(#arrow-f472b6)"/><path d="M 470 315 C 432 280, 432 220, 470 185" fill="none" stroke="#f472b6" stroke-width="2" stroke-linecap="round" stroke-dasharray="2 14" stroke-opacity="0.95"><animate attributeName="stroke-dashoffset" values="0;-32" dur="2.6s" repeatCount="indefinite"/></path><g transform="translate(432 250)"><rect x="-64.1" y="-11" width="128.2" height="22" rx="6" fill="rgba(12, 7, 4, 0.88)" stroke="#f472b6" stroke-opacity="0.45"/><text x="0" y="4" class="edge-label" text-anchor="middle">clarify / confirm</text></g>
<path d="M 850 200 C 781.0 200, 781.0 435, 712 435" fill="none" stroke="#22d3ee" stroke-width="2" stroke-opacity="0.5" stroke-linecap="round"  marker-end="url(#arrow-22d3ee)"/><path d="M 850 200 C 781.0 200, 781.0 435, 712 435" fill="none" stroke="#22d3ee" stroke-width="2" stroke-linecap="round" stroke-dasharray="2 14" stroke-opacity="0.95"><animate attributeName="stroke-dashoffset" values="0;-32" dur="2.6s" repeatCount="indefinite"/></path><g transform="translate(800 300)"><rect x="-31.1" y="-11" width="62.2" height="22" rx="6" fill="rgba(12, 7, 4, 0.88)" stroke="#22d3ee" stroke-opacity="0.45"/><text x="0" y="4" class="edge-label" text-anchor="middle">applied</text></g>
<path d="M 850 320 C 781.0 320, 781.0 447, 712 447" fill="none" stroke="#a78bfa" stroke-width="2" stroke-opacity="0.5" stroke-linecap="round"  marker-end="url(#arrow-a78bfa)"/><path d="M 850 320 C 781.0 320, 781.0 447, 712 447" fill="none" stroke="#a78bfa" stroke-width="2" stroke-linecap="round" stroke-dasharray="2 14" stroke-opacity="0.95"><animate attributeName="stroke-dashoffset" values="0;-32" dur="2.4s" repeatCount="indefinite"/></path>
<path d="M 1165 210 C 850.7 210, 850.7 441, 716 441" fill="none" stroke="#2dd4bf" stroke-width="2" stroke-opacity="0.5" stroke-linecap="round"  marker-end="url(#arrow-2dd4bf)"/><path d="M 1165 210 C 850.7 210, 850.7 441, 716 441" fill="none" stroke="#2dd4bf" stroke-width="2" stroke-linecap="round" stroke-dasharray="2 14" stroke-opacity="0.95"><animate attributeName="stroke-dashoffset" values="0;-32" dur="3.0s" repeatCount="indefinite"/></path>
<path d="M 1165 330 C 850.7 330, 850.7 453, 716 453" fill="none" stroke="#f472b6" stroke-width="2" stroke-opacity="0.5" stroke-linecap="round"  marker-end="url(#arrow-f472b6)"/><path d="M 1165 330 C 850.7 330, 850.7 453, 716 453" fill="none" stroke="#f472b6" stroke-width="2" stroke-linecap="round" stroke-dasharray="2 14" stroke-opacity="0.95"><animate attributeName="stroke-dashoffset" values="0;-32" dur="3.2s" repeatCount="indefinite"/></path>
<path d="M 710 575 C 780.0 575, 780.0 558, 850 558" fill="none" stroke="#f4b860" stroke-width="2" stroke-opacity="0.5" stroke-linecap="round"  marker-end="url(#arrow-f4b860)"/><path d="M 710 575 C 780.0 575, 780.0 558, 850 558" fill="none" stroke="#f4b860" stroke-width="2" stroke-linecap="round" stroke-dasharray="2 14" stroke-opacity="0.95"><animate attributeName="stroke-dashoffset" values="0;-32" dur="2.2s" repeatCount="indefinite"/></path><g transform="translate(782 552)"><rect x="-27.8" y="-11" width="55.6" height="22" rx="6" fill="rgba(12, 7, 4, 0.88)" stroke="#f4b860" stroke-opacity="0.45"/><text x="0" y="4" class="edge-label" text-anchor="middle">reveal</text></g>
<path d="M 710 705 C 980 705, 1180 660, 1290 600" fill="none" stroke="#d97757" stroke-width="2" stroke-opacity="0.5" stroke-linecap="round"  marker-end="url(#arrow-d97757)"/><path d="M 710 705 C 980 705, 1180 660, 1290 600" fill="none" stroke="#d97757" stroke-width="2" stroke-linecap="round" stroke-dasharray="2 14" stroke-opacity="0.95"><animate attributeName="stroke-dashoffset" values="0;-32" dur="2.8s" repeatCount="indefinite"/></path><g transform="translate(1010 706)"><rect x="-37.7" y="-11" width="75.4" height="22" rx="6" fill="rgba(12, 7, 4, 0.88)" stroke="#d97757" stroke-opacity="0.45"/><text x="0" y="4" class="edge-label" text-anchor="middle">carry out</text></g>
<path d="M 1120 560 L 1166 560" fill="none" stroke="#34d399" stroke-width="2" stroke-opacity="0.5" stroke-linecap="round"  marker-end="url(#arrow-34d399)"/><path d="M 1120 560 L 1166 560" fill="none" stroke="#34d399" stroke-width="2" stroke-linecap="round" stroke-dasharray="2 14" stroke-opacity="0.95"><animate attributeName="stroke-dashoffset" values="0;-32" dur="2.0s" repeatCount="indefinite"/></path>
<text x="40" y="892" class="legend-h">FLOW</text>
<line x1="120" y1="888" x2="146" y2="888" stroke="#94a3b8" stroke-width="3" stroke-linecap="round"/>
<text x="153" y="892" class="legend">ship / install</text>
<line x1="282" y1="888" x2="308" y2="888" stroke="#f472b6" stroke-width="3" stroke-linecap="round"/>
<text x="315" y="892" class="legend">read / gate</text>
<line x1="432" y1="888" x2="458" y2="888" stroke="#fbbf24" stroke-width="3" stroke-linecap="round"/>
<text x="465" y="892" class="legend">optimize</text>
<line x1="582" y1="888" x2="608" y2="888" stroke="#22d3ee" stroke-width="3" stroke-linecap="round"/>
<text x="615" y="892" class="legend">techniques applied</text>
<line x1="772" y1="888" x2="798" y2="888" stroke="#f4b860" stroke-width="3" stroke-linecap="round"/>
<text x="805" y="892" class="legend">show</text>
<line x1="922" y1="888" x2="948" y2="888" stroke="#d97757" stroke-width="3" stroke-linecap="round"/>
<text x="955" y="892" class="legend">execute</text>
<line x1="1072" y1="888" x2="1098" y2="888" stroke="#34d399" stroke-width="3" stroke-linecap="round"/>
<text x="1105" y="892" class="legend">result</text>
<text x="1484" y="912" text-anchor="end" class="footer">assets/architecture.svg · regenerate via scripts/generate-architecture-svg.py</text>
</svg>